HIERARCHY
ROOT root
{
	OFFSET 0.00 0.00 0.00
	CHANNELS 6 Xposition Yposition Zposition Zrotation Xrotation Yrotation
	JOINT lowerback
	{
		OFFSET 0 0 0
		CHANNELS 6 Xposition Yposition Zposition Zrotation Xrotation Yrotation
		JOINT upperback
		{
			OFFSET -0.214371 12.3768 -1.12219
			CHANNELS 6 Xposition Yposition Zposition Zrotation Xrotation Yrotation
			JOINT thorax
			{
				OFFSET -0.00137213 12.3873 0.296195
				CHANNELS 6 Xposition Yposition Zposition Zrotation Xrotation Yrotation
				JOINT lowerneck
				{
					OFFSET 0.0883157 12.5016 0.82912
					CHANNELS 6 Xposition Yposition Zposition Zrotation Xrotation Yrotation
					JOINT upperneck
					{
						OFFSET -1 10.1794 0.943522
						CHANNELS 6 Xposition Yposition Zposition Zrotation Xrotation Yrotation
						JOINT head
						{
							OFFSET 0.667525 10.2797 -1.57149
							CHANNELS 6 Xposition Yposition Zposition Zrotation Xrotation Yrotation
							End Site
							{
								OFFSET 0 0 0
							}
						}
					}
				}
				JOINT lclavicle
				{
					OFFSET 0.0883157 12.5016 0.82912
					CHANNELS 6 Xposition Yposition Zposition Zrotation Xrotation Yrotation
					JOINT lhumerus
					{
						OFFSET 20.61 4.45006 1.43784
						CHANNELS 6 Xposition Yposition Zposition Zrotation Xrotation Yrotation
						JOINT lradius
						{
							OFFSET 0 -30.3438 0
							CHANNELS 6 Xposition Yposition Zposition Zrotation Xrotation Yrotation
							JOINT lwrist
							{
								OFFSET 0 -18.964 0
								CHANNELS 6 Xposition Yposition Zposition Zrotation Xrotation Yrotation
								JOINT lhand
								{
									OFFSET 0 -9.48199 0
									CHANNELS 6 Xposition Yposition Zposition Zrotation Xrotation Yrotation
									JOINT lfingers
									{
										OFFSET 0 -3.17138 0
										CHANNELS 6 Xposition Yposition Zposition Zrotation Xrotation Yrotation
										End Site
										{
											OFFSET 0 -2.55685 0
										}
									}
								}
								JOINT lthumb
								{
									OFFSET 0 -9.48199 0
									CHANNELS 6 Xposition Yposition Zposition Zrotation Xrotation Yrotation
									End Site
									{
										OFFSET 0 -3.67114 0
									}
								}
							}
						}
					}
				}
				JOINT rclavicle
				{
					OFFSET 0.0883157 12.5016 0.82912
					CHANNELS 6 Xposition Yposition Zposition Zrotation Xrotation Yrotation
					JOINT rhumerus
					{
						OFFSET -20.61 4.45 1.44
						CHANNELS 6 Xposition Yposition Zposition Zrotation Xrotation Yrotation
						JOINT rradius
						{
							OFFSET 0 -29.5102 0
							CHANNELS 6 Xposition Yposition Zposition Zrotation Xrotation Yrotation
							JOINT rwrist
							{
								OFFSET 0 -19.2342 0
								CHANNELS 6 Xposition Yposition Zposition Zrotation Xrotation Yrotation
								JOINT rhand
								{
									OFFSET 0 -9.61712 0
									CHANNELS 6 Xposition Yposition Zposition Zrotation Xrotation Yrotation
									JOINT rfingers
									{
										OFFSET 0 -3.29215 0
										CHANNELS 6 Xposition Yposition Zposition Zrotation Xrotation Yrotation
										End Site
										{
											OFFSET 0 -2.557 0
										}
									}
								}
								JOINT rthumb
								{
									OFFSET 0 -9.61712 0
									CHANNELS 6 Xposition Yposition Zposition Zrotation Xrotation Yrotation
									End Site
									{
										OFFSET 0 -3.671 0
									}
								}
							}
						}
					}
				}
			}
		}
	}
	JOINT rfemur
	{
		OFFSET -8.46272 -9.62775 4.76248
		CHANNELS 6 Xposition Yposition Zposition Zrotation Xrotation Yrotation
		JOINT rtibia
		{
			OFFSET 1.00552e-005 -38.0331 0
			CHANNELS 6 Xposition Yposition Zposition Zrotation Xrotation Yrotation
			JOINT rfoot
			{
				OFFSET 1.14428e-005 -43.2815 0
				CHANNELS 6 Xposition Yposition Zposition Zrotation Xrotation Yrotation
				JOINT rtoes
				{
					OFFSET 0 -14.1868 -3.08763
					CHANNELS 6 Xposition Yposition Zposition Zrotation Xrotation Yrotation
					End Site
					{
						OFFSET 0 -7.27332 0
					}
				}
			}
		}
	}
	JOINT lfemur
	{
		OFFSET 9.10607 -9.62778 4.76249
		CHANNELS 6 Xposition Yposition Zposition Zrotation Xrotation Yrotation
		JOINT ltibia
		{
			OFFSET -1.01399e-005 -38.3535 0
			CHANNELS 6 Xposition Yposition Zposition Zrotation Xrotation Yrotation
			JOINT lfoot
			{
				OFFSET -1.12937e-005 -42.7176 0
				CHANNELS 6 Xposition Yposition Zposition Zrotation Xrotation Yrotation
				JOINT ltoes
				{
					OFFSET 0 -13.9965 -2.83857
					CHANNELS 6 Xposition Yposition Zposition Zrotation Xrotation Yrotation
					End Site
					{
						OFFSET 0 -7.16348 0
					}
				}
			}
		}
	}
}
MOTION
Frames: 7
Frame Time: 0.00833333
1.52072e-015	97.214	5.76171e-017	5.10008	-0.940854	-3.92112	0 0 0 -4.7716	5.08418	0.952515	-0.214371 12.3768 -1.12219 0.60843	-0.145783	1.00199	-0.00137213 12.3873 0.296195 3.21148	-3.09652	0.577752	0.0883157 12.5016 0.82912 -10.3147	-14.739	-2.61708	-1 10.1794 0.943522 6.94792	16.1856	-1.9185	0.667525 10.2797 -1.57149 2.71143	10.618	-1.436	0.0883157 12.5016 0.82912 -15	0	-0	20.61 4.45006 1.43784 13.3915	6.67057	-159.785	0 -30.3438 0 -0	17.3622	-0	0 -18.964 0 1.15293e-014	-5.37314e-015	-139.975	0 -9.48199 0 1.22245	4.37968	-2.58917e-014	0 -3.17138 0 -0	7.12502	-0	0 -9.48199 0 25	15	-1.36605e-015	0.0883157 12.5016 0.82912 15	0	-0	-20.61 4.45 1.44 -17.1465	-3.80622	162.051	0 -29.5102 0 -0	30.4339	-0	0 -19.2342 0 1.68435e-015	-4.56071e-015	130.54	0 -9.61712 0 1.22	4.38	-0	0 -3.29215 0 -0	7.12502	-0	0 -9.61712 0 25	15	-7.97034e-015	-8.46272 -9.62775 4.76248 -3.69888	-20.2433	0.375268	1.00552e-005 -38.0331 0 -0	72.4792	-0	1.14428e-005 -43.2815 0 -1.86206e-015	-68.8739	-2.03754e-015	0 -14.1868 -3.08763 -0	-31.2831	-0	9.10607 -9.62778 4.76249 -9.15574	-16.0079	1.88863	-1.01399e-005 -38.3535 0 -0	34.7354	-0	-1.12937e-005 -42.7176 0 7.46839e-015	-77.2367	7.8827e-015	0 -13.9965 -2.83857 -0	-27.4866	-0
0.0439063	97.1859	1.27454	5.31139	-0.916988	-3.62443	0 0 0 -4.91647	5.05556	0.80633	-0.214371 12.3768 -1.12219 0.595952	-0.0733582	0.801016	-0.00137213 12.3873 0.296195 3.29983	-2.98952	0.475997	0.0883157 12.5016 0.82912 -10.2713	-14.7394	-2.58018	-1 10.1794 0.943522 6.78441	16.1915	-1.83506	0.667525 10.2797 -1.57149 2.66132	10.6148	-1.41259	0.0883157 12.5016 0.82912 -15	0	-0	20.61 4.45006 1.43784 13.4645	5.93326	-160.426	0 -30.3438 0 -0	17.77	-0	0 -18.964 0 1.15144e-014	-5.38564e-015	-140.134	0 -9.48199 0 1.22245	4.37968	-2.58917e-014	0 -3.17138 0 -0	7.12502	-0	0 -9.48199 0 25	15	-1.36605e-015	0.0883157 12.5016 0.82912 15	0	-0	-20.61 4.45 1.44 -17.1041	-3.46263	162.177	0 -29.5102 0 -0	30.3593	-0	0 -19.2342 0 1.64703e-015	-4.51672e-015	130.069	0 -9.61712 0 1.22	4.38	-0	0 -3.29215 0 -0	7.12502	-0	0 -9.61712 0 25	15	-7.97034e-015	-8.46272 -9.62775 4.76248 -4.04485	-21.9252	0.0162959	1.00552e-005 -38.0331 0 -0	71.9037	-0	1.14428e-005 -43.2815 0 -2.01513e-015	-70.3234	-2.18102e-015	0 -14.1868 -3.08763 -0	-32.6372	-0	9.10607 -9.62778 4.76249 -9.61022	-15.1535	1.53432	-1.01399e-005 -38.3535 0 -0	34.7108	-0	-1.12937e-005 -42.7176 0 7.93476e-015	-77.9447	8.33818e-015	0 -13.9965 -2.83857 -0	-27.7736	-0
0.0845406	97.1398	2.55176	5.4997	-0.887642	-3.33161	0 0 0 -5.05203	5.05324	0.658972	-0.214371 12.3768 -1.12219 0.600133	-0.0132211	0.597868	-0.00137213 12.3873 0.296195 3.3996	-2.9086	0.373857	0.0883157 12.5016 0.82912 -10.2588	-14.7385	-2.53927	-1 10.1794 0.943522 6.66341	16.176	-1.75018	0.667525 10.2797 -1.57149 2.63142	10.6028	-1.38579	0.0883157 12.5016 0.82912 -15	0	-0	20.61 4.45006 1.43784 13.5548	5.23681	-161.176	0 -30.3438 0 -0	18.1977	-0	0 -18.964 0 1.1525e-014	-5.37676e-015	-140.021	0 -9.48199 0 1.22245	4.37968	-2.58917e-014	0 -3.17138 0 -0	7.12502	-0	0 -9.48199 0 25	15	-1.36605e-015	0.0883157 12.5016 0.82912 15	0	-0	-20.61 4.45 1.44 -17.0866	-3.07578	162.34	0 -29.5102 0 -0	30.2881	-0	0 -19.2342 0 1.61274e-015	-4.47564e-015	129.632	0 -9.61712 0 1.22	4.38	-0	0 -3.29215 0 -0	7.12502	-0	0 -9.61712 0 25	15	-7.97034e-015	-8.46272 -9.62775 4.76248 -4.36226	-23.5339	-0.283652	1.00552e-005 -38.0331 0 -0	71.1168	-0	1.14428e-005 -43.2815 0 -2.17211e-015	-71.6236	-2.32944e-015	0 -14.1868 -3.08763 -0	-33.841	-0	9.10607 -9.62778 4.76249 -10.0365	-14.2843	1.18754	-1.01399e-005 -38.3535 0 -0	34.6672	-0	-1.12937e-005 -42.7176 0 8.44211e-015	-78.6319	8.83498e-015	0 -13.9965 -2.83857 -0	-27.9829	-0
0.124722	97.0608	3.83389	5.64768	-0.854032	-3.04683	0 0 0 -5.1577	5.08449	0.506591	-0.214371 12.3768 -1.12219 0.630555	0.0255248	0.388484	-0.00137213 12.3873 0.296195 3.50936	-2.867	0.269623	0.0883157 12.5016 0.82912 -10.2969	-14.708	-2.48812	-1 10.1794 0.943522 6.60029	16.1318	-1.65695	0.667525 10.2797 -1.57149 2.6319	10.5748	-1.35246	0.0883157 12.5016 0.82912 -15	0	-0	20.61 4.45006 1.43784 13.6485	4.60576	-162.049	0 -30.3438 0 -0	18.6235	-0	0 -18.964 0 1.15688e-014	-5.33976e-015	-139.553	0 -9.48199 0 1.22245	4.37968	-2.58917e-014	0 -3.17138 0 -0	7.12502	-0	0 -9.48199 0 25	15	-1.36605e-015	0.0883157 12.5016 0.82912 15	0	-0	-20.61 4.45 1.44 -17.1086	-2.62208	162.534	0 -29.5102 0 -0	30.1971	-0	0 -19.2342 0 1.58248e-015	-4.43885e-015	129.243	0 -9.61712 0 1.22	4.38	-0	0 -3.29215 0 -0	7.12502	-0	0 -9.61712 0 25	15	-7.97034e-015	-8.46272 -9.62775 4.76248 -4.6163	-25.0796	-0.510558	1.00552e-005 -38.0331 0 -0	70.124	-0	1.14428e-005 -43.2815 0 -2.33759e-015	-72.8255	-2.48702e-015	0 -14.1868 -3.08763 -0	-35.0229	-0	9.10607 -9.62778 4.76249 -10.4225	-13.4195	0.84795	-1.01399e-005 -38.3535 0 -0	34.6587	-0	-1.12937e-005 -42.7176 0 9.01313e-015	-79.3183	9.39547e-015	0 -13.9965 -2.83857 -0	-28.0708	-0
0.163584	96.9545	5.11924	5.7705	-0.815294	-2.75697	0 0 0 -5.24612	5.13454	0.347282	-0.214371 12.3768 -1.12219 0.678437	0.0525236	0.170237	-0.00137213 12.3873 0.296195 3.62786	-2.84639	0.161506	0.0883157 12.5016 0.82912 -10.3645	-14.6592	-2.42861	-1 10.1794 0.943522 6.5766	16.0572	-1.55708	0.667525 10.2797 -1.57149 2.65211	10.5322	-1.3135	0.0883157 12.5016 0.82912 -15	0	-0	20.61 4.45006 1.43784 13.7379	4.01649	-163.062	0 -30.3438 0 -0	19.0806	-0	0 -18.964 0 1.16395e-014	-5.27867e-015	-138.79	0 -9.48199 0 1.22245	4.37968	-2.58917e-014	0 -3.17138 0 -0	7.12502	-0	0 -9.48199 0 25	15	-1.36605e-015	0.0883157 12.5016 0.82912 15	0	-0	-20.61 4.45 1.44 -17.1692	-2.11769	162.79	0 -29.5102 0 -0	30.1172	-0	0 -19.2342 0 1.54909e-015	-4.39765e-015	128.81	0 -9.61712 0 1.22	4.38	-0	0 -3.29215 0 -0	7.12502	-0	0 -9.61712 0 25	15	-7.97034e-015	-8.46272 -9.62775 4.76248 -4.82491	-26.5692	-0.685514	1.00552e-005 -38.0331 0 -0	68.919	-0	1.14428e-005 -43.2815 0 -2.51156e-015	-73.9347	-2.65373e-015	0 -14.1868 -3.08763 -0	-36.1881	-0	9.10607 -9.62778 4.76249 -10.785	-12.5606	0.499193	-1.01399e-005 -38.3535 0 -0	34.6762	-0	-1.12937e-005 -42.7176 0 9.65878e-015	-80.0019	1.00306e-014	0 -13.9965 -2.83857 -0	-28.0879	-0
0.195413	96.8501	6.40366	5.89539	-0.769345	-2.46247	0 0 0 -5.35333	5.19812	0.191075	-0.214371 12.3768 -1.12219 0.728357	0.0810133	-0.0457677	-0.00137213 12.3873 0.296195 3.75874	-2.83073	0.0546631	0.0883157 12.5016 0.82912 -10.4326	-14.6345	-2.37321	-1 10.1794 0.943522 6.57203	15.9697	-1.46492	0.667525 10.2797 -1.57149 2.67724	10.4902	-1.27532	0.0883157 12.5016 0.82912 -15	0	-0	20.61 4.45006 1.43784 13.8503	3.42807	-164.174	0 -30.3438 0 -0	19.5932	-0	0 -18.964 0 1.17234e-014	-5.20393e-015	-137.872	0 -9.48199 0 1.22245	4.37968	-2.58917e-014	0 -3.17138 0 -0	7.12502	-0	0 -9.48199 0 25	15	-1.36605e-015	0.0883157 12.5016 0.82912 15	0	-0	-20.61 4.45 1.44 -17.2422	-1.60184	163.095	0 -29.5102 0 -0	30.0775	-0	0 -19.2342 0 1.51556e-015	-4.35563e-015	128.371	0 -9.61712 0 1.22	4.38	-0	0 -3.29215 0 -0	7.12502	-0	0 -9.61712 0 25	15	-7.97034e-015	-8.46272 -9.62775 4.76248 -5.02805	-27.9756	-0.816493	1.00552e-005 -38.0331 0 -0	67.494	-0	1.14428e-005 -43.2815 0 -2.67046e-015	-74.8324	-2.80677e-015	0 -14.1868 -3.08763 -0	-37.0438	-0	9.10607 -9.62778 4.76249 -11.1381	-11.6634	0.153444	-1.01399e-005 -38.3535 0 -0	34.605	-0	-1.12937e-005 -42.7176 0 1.03445e-014	-80.639	1.07066e-014	0 -13.9965 -2.83857 -0	-28.0947	-0
0.214482	96.7768	7.68314	6.04962	-0.714098	-2.16376	0 0 0 -5.51548	5.26995	0.0480047	-0.214371 12.3768 -1.12219 0.765066	0.124233	-0.248425	-0.00137213 12.3873 0.296195 3.90576	-2.804	-0.0457448	0.0883157 12.5016 0.82912 -10.4722	-14.6764	-2.33432	-1 10.1794 0.943522 6.56609	15.8869	-1.39482	0.667525 10.2797 -1.57149 2.69241	10.4637	-1.24435	0.0883157 12.5016 0.82912 -15	0	-0	20.61 4.45006 1.43784 14.0123	2.79965	-165.343	0 -30.3438 0 -0	20.1854	-0	0 -18.964 0 1.18077e-014	-5.12643e-015	-136.937	0 -9.48199 0 1.22245	4.37968	-2.58917e-014	0 -3.17138 0 -0	7.12502	-0	0 -9.48199 0 25	15	-1.36605e-015	0.0883157 12.5016 0.82912 15	0	-0	-20.61 4.45 1.44 -17.3001	-1.11413	163.441	0 -29.5102 0 -0	30.1069	-0	0 -19.2342 0 1.4846e-015	-4.31625e-015	127.962	0 -9.61712 0 1.22	4.38	-0	0 -3.29215 0 -0	7.12502	-0	0 -9.61712 0 25	15	-7.97034e-015	-8.46272 -9.62775 4.76248 -5.26669	-29.2719	-0.911657	1.00552e-005 -38.0331 0 -0	65.8414	-0	1.14428e-005 -43.2815 0 -2.78077e-015	-75.4	-2.91338e-015	0 -14.1868 -3.08763 -0	-37.2971	-0	9.10607 -9.62778 4.76249 -11.4956	-10.6834	-0.177068	-1.01399e-005 -38.3535 0 -0	34.3304	-0	-1.12937e-005 -42.7176 0 1.10117e-014	-81.1861	1.13654e-014	0 -13.9965 -2.83857 -0	-28.1514	-0
